<?xml version="1.0" encoding="UTF-8"?>
<svg version="1.1" viewBox="0 0 700 700" xmlns="http://www.w3.org/2000/svg" xmlns:cc="http://creativecommons.org/ns#" xmlns:dc="http://purl.org/dc/elements/1.1/" xmlns:rdf="http://www.w3.org/1999/02/22-rdf-syntax-ns#">
<defs>
<clipPath id="b">
<path transform="translate(191.43 352.36)" d="m748.57 54.286a590 265.71 0 1 1-1180 0 590 265.71 0 1 1 1180 0z" fill="#dbdee3"/>
</clipPath>
<radialGradient id="a" cx="344.65" cy="166.76" r="350" gradientTransform="matrix(1.8326 -.034379 .023888 1.2733 -291.29 129.01)" gradientUnits="userSpaceOnUse">
<stop stop-color="#fff" offset="0"/>
<stop stop-color="#fff" stop-opacity="0" offset="1"/>
</radialGradient>
</defs>
<g transform="translate(0 -352.36)">
<rect y="352.36" width="700" height="700" fill="#acf"/>
<path d="m150 452.36v500h400v-500c-133.33-3e-5 -266.67-2e-5 -400-2e-5z" fill="none" stroke="#fff" stroke-width="25"/>
<rect transform="translate(0 -2.6172e-6)" y="352.36" width="700" height="700" clip-path="url(#b)" fill="url(#a)"/>
<g transform="translate(176.79 -141.43)" fill="none" stroke="#fff" stroke-width="25">
<path d="m12.5 695.22h150"/>
<path d="m12.5 754.65h321.43"/>
<path d="m12.5 814.08h321.43"/>
<path d="m12.5 873.51h321.43"/>
<path d="m12.5 932.93h321.43"/>
<path d="m183.93 992.36h150"/>
</g>
</g>
<metadata>
<rdf:RDF>
<cc:Work>
<dc:format>image/svg+xml</dc:format>
<dc:type rdf:resource="http://purl.org/dc/dcmitype/StillImage"/>
<cc:license rdf:resource="http://creativecommons.org/licenses/publicdomain/"/>
<dc:publisher>
<cc:Agent rdf:about="http://openclipart.org/">
<dc:title>Openclipart</dc:title>
</cc:Agent>
</dc:publisher>
</cc:Work>
<cc:License rdf:about="http://creativecommons.org/licenses/publicdomain/">
<cc:permits rdf:resource="http://creativecommons.org/ns#Reproduction"/>
<cc:permits rdf:resource="http://creativecommons.org/ns#Distribution"/>
<cc:permits rdf:resource="http://creativecommons.org/ns#DerivativeWorks"/>
</cc:License>
</rdf:RDF>
</metadata>
</svg>
