<?xml version="1.0" encoding="UTF-8"?>
<svg data-name="Layer 1" viewBox="0 0 1061 742.86" xmlns="http://www.w3.org/2000/svg">
<title>task</title>
<path transform="translate(-69.5 -78.572)" d="m1118.5 516.01c0 103.86-61.742 140.12-137.91 140.12s-137.91-36.264-137.91-140.12 137.91-235.98 137.91-235.98 137.91 132.12 137.91 235.98z" fill="#f2f2f2"/>
<polygon points="906.07 561.68 907.48 474.76 966.26 367.22 907.7 461.12 908.34 422.04 948.85 344.24 908.51 411.7 908.51 411.7 909.65 341.4 953.03 279.47 909.83 330.35 910.54 201.46 906.06 372.09 906.43 365.05 862.32 297.54 905.72 378.56 901.61 457.06 901.49 454.98 850.64 383.94 901.33 462.34 900.82 472.16 900.73 472.31 900.77 473.11 890.34 672.29 904.27 672.29 905.94 569.41 956.51 491.2" fill="#3f3d56"/>
<path transform="translate(-69.5 -78.572)" d="m831.66 421.49c0 134.32-79.853 181.22-178.36 181.22s-178.36-46.901-178.36-181.22 178.36-305.2 178.36-305.2 178.36 170.88 178.36 305.2z" fill="#f2f2f2"/>
<polygon points="577.3 503.59 579.13 391.17 655.15 252.1 579.42 373.54 580.24 322.99 632.63 222.37 580.45 309.62 580.45 309.62 581.93 218.7 638.03 138.6 582.16 204.41 583.08 37.709 577.29 258.39 577.76 249.28 520.72 161.98 576.85 266.76 571.53 368.29 571.38 365.6 505.62 273.72 571.18 375.12 570.51 387.82 570.39 388.01 570.45 389.05 556.96 646.65 574.98 646.65 577.14 513.59 642.54 412.44" fill="#3f3d56"/>
<path transform="translate(-69.5 -78.572)" d="m1107.5 769.94c0 10.11-29.38 19.55-80.14 27.5-91.98 14.42-254.15 23.99-438.85 23.99-286.62 0-518.98-23.05-518.98-51.49 0-3.93 4.46-7.78 12.91-11.46 9.53-4.17 24.15-8.14 43.17-11.85 39.21-7.65 97.14-14.19 167.8-19.05 82.02-5.6299 181.21-8.98 288.21-9.11q3.435-0.015 6.89-0.01 19.335 0 38.33 0.14 8.925 0.06006 17.77 0.16c63.02 0.67 122.66 2.46 176.86 5.16 2.42 0.12 4.83 0.25 7.23 0.37 0.82 0.04 1.64 0.09 2.46 0.13 0.22 0.01 0.44 0.02 0.66 0.04q15.975 0.84 31.25 1.79 5.01 0.3 9.93 0.63c31.87 2.07 61.29 4.48 87.75 7.19q6.78 0.68994 13.3 1.41c33.48 3.67 61.67 7.84 83.39 12.37 32.1 6.69 50.06 14.18 50.06 22.09z" fill="#3f3d56"/>
<ellipse cx="752.96" cy="688.15" rx="113.08" ry="26.202" opacity=".1"/>
<path transform="translate(-69.5 -78.572)" d="m1107.5 769.94c0 10.11-29.38 19.55-80.14 27.5-38.38-4.19-64.95-13.24-64.95-23.72 0-13.05 41.16-23.87 95.03-25.87 32.1 6.69 50.06 14.18 50.06 22.09z" opacity=".1"/>
<path transform="translate(-69.5 -78.572)" d="m632.15 757.99c0 17.266-123.08 31.259-274.89 31.259-150.39 0-272.57-13.726-274.85-30.771 29.19-12.742 106.04-23.683 210.97-30.9 20.502-0.5516 41.896-0.8458 63.887-0.8458 151.82 2e-5 274.89 13.993 274.89 31.259z" opacity=".1"/>
<rect x="56.082" width="456.01" height="683.09" fill="#3f3d56"/>
<rect x="83.663" y="237.2" width="428.43" height="209.62" fill="#2f2e41"/>
<rect x="256.5" y="241.79" width="423.83" height="199.5" fill="#3f3d56"/>
<rect x="282.48" y="271.21" width="94.695" height="34.017" fill="#6c63ff"/>
<rect x="305.92" y="330.97" width="348.44" height="9.1937" fill="#6c63ff"/>
<rect x="305.92" y="354.88" width="348.44" height="9.1937" fill="#6c63ff"/>
<rect x="305.92" y="378.78" width="348.44" height="9.1937" fill="#6c63ff"/>
<rect x="305.92" y="402.68" width="348.44" height="9.1937" fill="#6c63ff"/>
<rect x="86.421" y="77.227" width="94.695" height="34.017" fill="#f2f2f2"/>
<rect x="109.86" y="136.99" width="348.44" height="9.1937" fill="#f2f2f2"/>
<rect x="109.86" y="160.89" width="348.44" height="9.1937" fill="#f2f2f2"/>
<rect x="109.86" y="184.79" width="348.44" height="9.1937" fill="#f2f2f2"/>
<rect x="109.86" y="208.7" width="348.44" height="9.1937" fill="#f2f2f2"/>
<rect x="90.098" y="467.96" width="94.695" height="34.017" fill="#f2f2f2"/>
<rect x="113.54" y="527.72" width="348.44" height="9.1937" fill="#f2f2f2"/>
<rect x="113.54" y="551.62" width="348.44" height="9.1937" fill="#f2f2f2"/>
<rect x="113.54" y="575.52" width="348.44" height="9.1937" fill="#f2f2f2"/>
<rect x="113.54" y="599.43" width="348.44" height="9.1937" fill="#f2f2f2"/>
<path transform="translate(-69.5 -78.572)" d="m792.56 219.03s18.904 24.22 16.541 41.352 38.989-23.629 38.989-23.629-14.178-29.537-6.4981-43.714-49.031 25.992-49.031 25.992z" fill="#ffb9b9"/>
<path transform="translate(-69.5 -78.572)" d="m858.73 709.34s24.811 27.174 20.676 33.081-76.796 28.355-85.066 27.174-12.405-7.0888-9.4518-8.861 21.857-11.815 21.857-11.815l15.95-18.313s11.815-6.4981 11.815-10.043 24.22-11.224 24.22-11.224z" fill="#2f2e41"/>
<path transform="translate(-69.5 -78.572)" d="m816.78 739.47s-9.4518 15.359-11.224 15.95 8.861 21.857 8.861 21.857l24.811-7.6796 13.587-11.224-2.9537-15.359z" fill="#ffb9b9"/>
<path transform="translate(-69.5 -78.572)" d="m791.38 446.46-11.815 52.576s-40.761 91.564-12.405 107.51l62.027 118.74 33.081-14.768-55.529-121.69 25.402-140z" fill="#d0cde1"/>
<path transform="translate(-69.5 -78.572)" d="m791.38 446.46-11.815 52.576s-40.761 91.564-12.405 107.51l62.027 118.74 33.081-14.768-55.529-121.69 25.402-140z" opacity=".1"/>
<path transform="translate(-69.5 -78.572)" d="m795.52 454.73h-5.9936a333.98 333.98 0 0 0 3.04 54.348c4.1352 30.128 14.768 99.244 14.768 99.244s-1.1815 12.996 2.3629 17.131 4.1352-1.1815 4.7259 8.2703 6.2027 75.167 6.2027 75.167 3.8398 13.443-0.29537 16.397-12.405 18.904-6.4981 21.266 46.668 5.3166 48.44 3.5444 0-112.83 0-112.83-1.1815-22.448-2.363-23.629-6.4981-17.131-4.7259-20.676 0.59074-14.178 0.59074-15.95-5.3166 0-0.59074-7.6796 5.3166-69.116 5.3166-69.116 25.402-38.989 17.722-49.031z" fill="#d0cde1"/>
<circle cx="739.6" cy="110.33" r="38.989" fill="#ffb9b9"/>
<path transform="translate(-69.5 -78.572)" d="m848.09 230.25s-23.629 5.9074-33.081 20.085l-8.2703 1.7722v8.2703s-15.359 49.031-11.815 70.298 0 62.618-5.9074 73.842-7.6796 13.587-4.7259 18.313 7.0888 20.676 4.1352 27.765 0 14.178 27.174 15.95 65.572 1.7722 65.572-7.6796-2.3629-36.035 0-43.124 3.5444-11.815 2.363-18.313 2.3629-79.159 2.3629-79.159 0.59075-72.661-37.807-88.02z" fill="#2f2e41"/>
<path transform="translate(-69.5 -78.572)" d="m792.56 412.79-32.49 48.44s-34.263 31.309-21.857 45.487 44.896-41.352 44.896-41.352l35.444-40.17z" fill="#ffb9b9"/>
<path transform="translate(-69.5 -78.572)" d="m813.24 758.37s-1.1815-7.6796-5.3166-7.6796-31.9 18.904-31.9 18.904-36.626 4.1352-22.448 11.815 101.02 8.861 101.61 5.9074 1.7722-32.081-2.3629-31.99-37.216 6.5888-37.216 6.5888z" fill="#2f2e41"/>
<path transform="translate(-69.5 -78.572)" d="m811.88 168.76a9.7791 9.7791 0 0 1-4.4561 1.0068c-1.5935 0.09057-3.4956-8e-3 -4.343-1.3604a6.221 6.221 0 0 1-0.54225-2.837 9.3463 9.3463 0 0 0-10.922-7.9604 13.445 13.445 0 0 0 1.7405 5.5434 11.855 11.855 0 0 1-10.422-1.3872l-0.60006 7.9574c-2.1192 1.0128-4.834 1.224-6.6821-0.2255s-1.9958-4.8514 0.09446-5.9225c-2.582-0.5384-5.7399-1.6952-5.9299-4.3259-0.17333-2.4004 2.3751-4.1573 2.8444-6.5177 0.38272-1.9252-0.6727-4.0177 0.07418-5.8329 0.98118-2.3846 4.5436-2.9968 5.2584-5.4744 0.364-1.2618-0.15973-2.6114-0.03472-3.9187 0.32734-3.4228 4.6305-4.8439 8.0634-4.6494s7.1797 1.1062 10.096-0.71518c1.4141-0.88311 2.4017-2.2966 3.6442-3.4082a10.823 10.823 0 0 1 12.568-1.0929c1.3806 0.85856 2.5853 2.0484 4.125 2.5702 3.151 1.0679 6.4385-0.95269 9.7328-1.4185a8.0861 8.0861 0 0 1 6.7789 1.9636 5.5492 5.5492 0 0 1 1.01 6.686c1.9327-0.32645 3.9808-0.64221 5.8023 0.08175s3.2134 2.905 2.3707 4.6747a6.0558 6.0558 0 0 0-0.735 1.5012c-0.171 1.0296 0.8205 1.9099 1.8216 2.2051s2.0876 0.24 3.0677 0.59872c4.0492 1.4819 3.0776 7.9553 6.2646 10.86a25.416 25.416 0 0 0 3.4548 2.1128 8.4062 8.4062 0 0 1 2.9642 10.156c-0.63881 1.4146-1.7092 2.7647-1.5802 4.3115 0.18086 2.1695 2.5055 3.3578 4.1368 4.7994a9.6247 9.6247 0 0 1 2.2404 11.05c-1.4996 3.1281-4.7472 5.4994-5.0768 8.9528-0.1433 1.5011 0.30776 2.9997 0.28208 4.5074a9.287 9.287 0 0 1-3.9919 7.0116 20.765 20.765 0 0 1-7.663 3.1885c-1.2878 0.30824-2.8244 0.79082-3.1361 2.0778-0.36952 1.5258 1.3329 2.9144 1.1568 4.4744a2.5946 2.5946 0 0 1-1.0418 1.6863c-2.3045 1.8022-5.9515 0.25721-7.3606-2.3066s-1.229-5.6707-1.0105-8.588l0.79458-10.608c0.24724-3.3008 0.22352-7.2205-2.4673-9.1482-2.9748-2.1311-7.3072-0.40582-10.671-1.8459-3.5052-1.5005-4.7626-5.892-4.6212-9.7023s1.2331-7.6265 0.60545-11.388c-0.77818-4.6612-4.9242-7.794-9.1105-4.7734 3.6792-0.50125 4.3145 3.7213 1.4066 5.4306z" fill="#2f2e41"/>
<path transform="translate(-69.5 -78.572)" d="m844.55 258.61s-23.629 9.4518-23.629 29.537 1.1815 46.668-2.9537 55.529-7.6796 11.815-5.3166 18.904 6.4981 5.9074 0 11.224-5.9074-3.5444-6.4981 5.3166 5.9074 10.043 0 14.178-21.266 20.676-14.768 25.992 23.629 22.448 29.537 15.95 8.861-23.039 17.131-21.857 9.4518 1.7722 8.2703-4.1352-6.4981-5.9074 0.59074-7.6796 10.043 2.363 7.6796-3.5444-4.1352-8.2703 0.59073-14.768 7.0888-8.2703 6.4981-14.768 12.996-64.981 12.996-64.981 4.1352-49.622-30.128-44.896z" opacity=".1"/>
<path transform="translate(-69.5 -78.572)" d="m838.05 257.43s-23.63 9.4518-23.63 29.537 1.1815 46.668-2.9537 55.529-7.6796 11.815-5.3166 18.904 6.4981 5.9074 0 11.224-5.9074-3.5444-6.4981 5.3166 5.9074 10.043 0 14.178-21.267 20.676-14.768 25.992 23.629 22.448 29.537 15.95 8.861-23.039 17.131-21.857 9.4518 1.7722 8.2703-4.1352-6.4981-5.9074 0.59074-7.6796 10.043 2.3629 7.6796-3.5444-4.1352-8.2703 0.59074-14.768 7.0888-8.2703 6.4981-14.768 12.996-64.981 12.996-64.981 4.1352-49.622-30.127-44.896z" opacity=".1"/>
<path transform="translate(-69.5 -78.572)" d="m841 255.66s-23.629 9.4518-23.629 29.537 1.1815 46.668-2.9537 55.529-7.6796 11.815-5.3166 18.904 6.4981 5.9074 0 11.224-5.9074-3.5444-6.4981 5.3166 5.9074 10.043 0 14.178-21.267 20.676-14.768 25.992 23.629 22.448 29.537 15.95 8.861-23.039 17.131-21.857 9.4518 1.7722 8.2703-4.1352-6.4981-5.9074 0.59074-7.6796 10.043 2.363 7.6796-3.5444-4.1352-8.2703 0.59074-14.768 7.0888-8.2703 6.4981-14.768 12.996-64.981 12.996-64.981 4.1352-49.622-30.128-44.896z" fill="#2f2e41"/>
<path transform="translate(-69.5 -78.572)" d="m964.5 663.79c0 51.684 32.424 93.506 72.494 93.506" fill="#2f2e41"/>
<path transform="translate(-69.5 -78.572)" d="m1037 757.29c0-52.265 36.183-94.557 80.899-94.557" fill="#6c63ff"/>
<path transform="translate(-69.5 -78.572)" d="m990.77 668.47c0 49.094 20.676 88.821 46.228 88.821" fill="#6c63ff"/>
<path transform="translate(-69.5 -78.572)" d="m1037 757.29c0-66.783 41.822-120.82 93.506-120.82" fill="#2f2e41"/>
<path transform="translate(-69.5 -78.572)" d="m1021.7 757.95s10.281-0.31664 13.379-2.523 15.814-4.8408 16.583-1.3023 15.45 17.599 3.8432 17.692-26.969-1.808-30.062-3.6917-3.7436-10.175-3.7436-10.175z" fill="#a8a8a8"/>
<path transform="translate(-69.5 -78.572)" d="m1055.8 770.59c-11.607 0.09365-26.969-1.808-30.062-3.6917-2.355-1.4345-3.2935-6.582-3.6075-8.9569-0.21746 0.00935-0.34322 0.01338-0.34322 0.01338s0.65117 8.2915 3.7436 10.175 18.455 3.7853 30.062 3.6917c3.3505-0.027 4.5078-1.2191 4.4442-2.9846-0.46545 1.0667-1.7433 1.7328-4.2371 1.7529z" opacity=".2"/>
</svg>
