<?xml version="1.0" encoding="UTF-8"?>
<svg viewBox="0 0 48 48" xmlns="http://www.w3.org/2000/svg" xmlns:cc="http://creativecommons.org/ns#" xmlns:dc="http://purl.org/dc/elements/1.1/" xmlns:rdf="http://www.w3.org/1999/02/22-rdf-syntax-ns#" xmlns:xlink="http://www.w3.org/1999/xlink">
<defs>
<radialGradient id="b" cx="605.71" cy="486.65" r="117.14" gradientTransform="matrix(-2.7744 0 0 1.9697 112.76 -872.89)" gradientUnits="userSpaceOnUse" xlink:href="#a"/>
<linearGradient id="a">
<stop offset="0"/>
<stop stop-opacity="0" offset="1"/>
</linearGradient>
<radialGradient id="c" cx="605.71" cy="486.65" r="117.14" gradientTransform="matrix(2.7744 0 0 1.9697 -1891.6 -872.89)" gradientUnits="userSpaceOnUse" xlink:href="#a"/>
<linearGradient id="i" x1="302.86" x2="302.86" y1="366.65" y2="609.51" gradientTransform="matrix(2.7744 0 0 1.9697 -1892.2 -872.89)" gradientUnits="userSpaceOnUse">
<stop stop-opacity="0" offset="0"/>
<stop offset=".5"/>
<stop stop-opacity="0" offset="1"/>
</linearGradient>
<radialGradient id="h" cx="8.8244" cy="3.7561" r="37.752" gradientTransform="matrix(.96827 0 0 1.0328 3.3536 .64645)" gradientUnits="userSpaceOnUse">
<stop stop-color="#a3a3a3" offset="0"/>
<stop stop-color="#4c4c4c" offset="1"/>
</radialGradient>
<radialGradient id="g" cx="33.967" cy="35.737" r="86.708" gradientTransform="scale(.96049 1.0411)" gradientUnits="userSpaceOnUse">
<stop stop-color="#fafafa" offset="0"/>
<stop stop-color="#bbb" offset="1"/>
</radialGradient>
<radialGradient id="f" cx="8.1436" cy="7.2679" r="38.159" gradientTransform="matrix(.96827 0 0 1.0328 3.3536 .64645)" gradientUnits="userSpaceOnUse">
<stop stop-color="#fff" offset="0"/>
<stop stop-color="#f8f8f8" offset="1"/>
</radialGradient>
<radialGradient id="e" cx="20.892" cy="114.57" r="5.256" gradientTransform="matrix(.2297 0 0 .2297 4.6135 3.9798)" gradientUnits="userSpaceOnUse">
<stop stop-color="#F0F0F0" offset="0"/>
<stop stop-color="#9a9a9a" offset="1"/>
</radialGradient>
<radialGradient id="d" cx="20.892" cy="64.568" r="5.257" gradientTransform="matrix(.2297 0 0 .2297 4.6135 3.9798)" gradientUnits="userSpaceOnUse">
<stop stop-color="#F0F0F0" offset="0"/>
<stop stop-color="#9a9a9a" offset="1"/>
</radialGradient>
</defs>
<g transform="matrix(.021055 0 0 .020868 42.852 41.154)">
<rect x="-1559.3" y="-150.7" width="1339.6" height="478.36" color="black" fill="url(#i)" opacity=".40206"/>
<path d="m-219.62-150.68v478.33c142.88 0.9 345.4-107.17 345.4-239.2 0-132.02-159.44-239.13-345.4-239.13z" color="black" fill="url(#c)" opacity=".40206"/>
<path d="m-1559.3-150.68v478.33c-142.8 0.9-345.4-107.17-345.4-239.2 0-132.02 159.5-239.13 345.4-239.13z" color="black" fill="url(#b)" opacity=".40206"/>
</g>
<rect x="6.6036" y="3.6464" width="34.875" height="40.92" ry="1.149" color="#000000" display="block" fill="url(#g)" stroke="url(#h)" stroke-linecap="round" stroke-linejoin="round"/>
<rect x="7.6661" y="4.5839" width="32.776" height="38.946" rx=".14905" ry=".14905" color="#000000" display="block" fill="none" stroke="url(#f)" stroke-linecap="round" stroke-linejoin="round"/>
<g transform="translate(.64645 -.037989)">
<g transform="matrix(.2297 0 0 .2297 4.9671 4.245)" fill="#fff" stroke="#000">
<path d="m23.428 113.07c0 1.97-1.6 3.57-3.573 3.57-1.974 0-3.573-1.6-3.573-3.57s1.6-3.57 3.573-3.57 3.573 1.6 3.573 3.57z"/>
<path d="m23.428 63.07c0 1.973-1.6 3.573-3.573 3.573-1.974 0-3.573-1.6-3.573-3.573 0-1.974 1.6-3.573 3.573-3.573s3.573 1.6 3.573 3.573z"/>
</g>
<path d="m9.995 29.952c0 0.454-0.3675 0.821-0.8207 0.821-0.4535 0-0.8207-0.368-0.8207-0.821s0.3675-0.82 0.8207-0.82 0.8207 0.367 0.8207 0.82z" fill="url(#e)"/>
<path d="m9.995 18.467c0 0.453-0.3675 0.821-0.8207 0.821-0.4535 0-0.8207-0.368-0.8207-0.821s0.3675-0.821 0.8207-0.821 0.8207 0.368 0.8207 0.821z" fill="url(#d)"/>
</g>
<path d="m11.506 5.4943v37.907" fill="none" stroke="#000" stroke-opacity=".017544" stroke-width=".98855"/>
<path d="m12.5 5.0205v38.018" fill="none" stroke="#fff" stroke-opacity=".20468"/>
<g transform="matrix(.90909 0 0 1 2.3636 0)" fill="#9b9b9b" fill-opacity=".54971">
<rect x="15" y="9" width="22" height="1" rx=".15156" ry=".065391" color="#000000" display="block"/>
<rect x="15" y="11" width="22" height="1" rx=".15156" ry=".065391" color="#000000" display="block"/>
<rect x="15" y="13" width="22" height="1" rx=".15156" ry=".065391" color="#000000" display="block"/>
<rect x="15" y="15" width="22" height="1" rx=".15156" ry=".065391" color="#000000" display="block"/>
<rect x="15" y="17" width="22" height="1" rx=".15156" ry=".065391" color="#000000" display="block"/>
<rect x="15" y="19" width="22" height="1" rx=".15156" ry=".065391" color="#000000" display="block"/>
<rect x="15" y="21" width="22" height="1" rx=".15156" ry=".065391" color="#000000" display="block"/>
<rect x="15" y="23" width="22" height="1" rx=".15156" ry=".065391" color="#000000" display="block"/>
<rect x="15" y="25" width="9.9" height="1" rx=".068204" ry=".065391" color="#000000" display="block"/>
<rect x="15" y="29" width="22" height="1" rx=".15156" ry=".065391" color="#000000" display="block"/>
<rect x="15" y="31" width="22" height="1" rx=".15156" ry=".065391" color="#000000" display="block"/>
<rect x="15" y="33" width="22" height="1" rx=".15156" ry=".065391" color="#000000" display="block"/>
<rect x="15" y="35" width="22" height="1" rx=".15156" ry=".065391" color="#000000" display="block"/>
<rect x="15" y="37" width="15.4" height="1" rx=".1061" ry=".065391" color="#000000" display="block"/>
</g>
<metadata>
<rdf:RDF>
<cc:Work>
<dc:format>image/svg+xml</dc:format>
<dc:type rdf:resource="http://purl.org/dc/dcmitype/StillImage"/>
<cc:license rdf:resource="http://creativecommons.org/licenses/publicdomain/"/>
<dc:publisher>
<cc:Agent rdf:about="http://openclipart.org/">
<dc:title>Openclipart</dc:title>
</cc:Agent>
</dc:publisher>
<dc:title>tango text x generic</dc:title>
<dc:date>2010-04-02T20:08:09</dc:date>
<dc:description>An icon from Tango Project. Since version 0.8.90 Tango Project icons are Public Domain:</dc:description>
<dc:source>https://openclipart.org/detail/36163/tango-text-x-generic-by-warszawianka</dc:source>
<dc:creator>
<cc:Agent>
<dc:title>warszawianka</dc:title>
</cc:Agent>
</dc:creator>
<dc:subject>
<rdf:Bag>
<rdf:li>document</rdf:li>
<rdf:li>externalsource</rdf:li>
<rdf:li>icon</rdf:li>
<rdf:li>paper</rdf:li>
<rdf:li>sheet</rdf:li>
<rdf:li>tango</rdf:li>
<rdf:li>text</rdf:li>
</rdf:Bag>
</dc:subject>
</cc:Work>
<cc:License rdf:about="http://creativecommons.org/licenses/publicdomain/">
<cc:permits rdf:resource="http://creativecommons.org/ns#Reproduction"/>
<cc:permits rdf:resource="http://creativecommons.org/ns#Distribution"/>
<cc:permits rdf:resource="http://creativecommons.org/ns#DerivativeWorks"/>
</cc:License>
</rdf:RDF>
</metadata>
</svg>
