<svg xmlns="http://www.w3.org/2000/svg" xmlns:xlink="http://www.w3.org/1999/xlink" width="1000" height="1000" viewBox="0 0 1000 1000">
  <defs>
    <clipPath id="clip-Web_1920_10">
      <rect width="1000" height="1000"/>
    </clipPath>
  </defs>
  <g id="Web_1920_10" data-name="Web 1920 – 10" clip-path="url(#clip-Web_1920_10)">
    <g id="Union_2" data-name="Union 2" transform="translate(8530.964 3799.612) rotate(25)" fill="#00c4ff">
      <path d="M -8721.94140625 843.0642700195312 L -8693.0068359375 455.5294189453125 L -8692.82421875 453.0851745605469 L -8695.2646484375 452.8543701171875 L -8831.330078125 439.9844665527344 L -8624.04296875 -35.92963790893555 L -8652.9814453125 351.6062316894531 L -8653.1640625 354.0504760742188 L -8650.7236328125 354.2813110351562 L -8514.6689453125 367.1508483886719 L -8721.94140625 843.0642700195312 Z" stroke="none"/>
      <path d="M -8718.3515625 828.5606079101562 L -8518.3388671875 369.3148498535156 L -8650.958984375 356.7701416015625 L -8655.83984375 356.3084716796875 L -8655.474609375 351.4200134277344 L -8627.6328125 -21.42705345153809 L -8827.6611328125 437.8204345703125 L -8695.029296875 450.3655395507812 L -8690.1494140625 450.8270568847656 L -8690.513671875 455.7155456542969 L -8718.3515625 828.5606079101562 M -8725.53125 857.567626953125 L -8695.5 455.3432922363281 L -8835 442.1485900878906 L -8620.453125 -50.43234252929688 L -8650.48828125 351.7923583984375 L -8511 364.9867248535156 L -8725.53125 857.567626953125 Z" stroke="none" fill="#fff"/>
    </g>
  </g>
</svg>
